<?xml version="1.0" encoding="utf-8"?>
<!-- Generator: Adobe Illustrator 19.0.0, SVG Export Plug-In . SVG Version: 6.00 Build 0)  -->
<svg version="1.1" id="图层_1" xmlns="http://www.w3.org/2000/svg" xmlns:xlink="http://www.w3.org/1999/xlink" x="0px" y="0px"
	 viewBox="-793 1243.2 115 66" style="enable-background:new -793 1243.2 115 66;" xml:space="preserve">
<style type="text/css">
	.st0{fill:#3E3A39;}
	.st1{fill:#93252A;}
	.st2{fill:#DF2422;}
</style>
<g>
	<g>
		<path class="st0" d="M-746.2,1267.4v-0.7h-2.4v0.7h-6.9v1.2v0.1v8.7v0.2v1.2h6.9v1.4h2.4v-1.4h5.5l0,0c0.7,0,1.3-0.6,1.3-1.3l0,0
			v-8.7v-0.1v-1.2h-6.8V1267.4z M-748.5,1277.4h-4.5v-8.7h4.5V1277.4z M-741.6,1277.4h-4.5v-8.7h4.5V1277.4z"/>
		<g>
			<path class="st0" d="M-760.1,1270.7h-0.9h-8.6h-0.9l0,0c-0.7,0-1.3,0.6-1.3,1.3v5.3h2.2v-5.2h8.6v5.4h2.2v-5.4
				C-758.8,1271.3-759.4,1270.7-760.1,1270.7z"/>
			<path class="st0" d="M-759.4,1270.6h0.6h1.6v-1.3l0,0l0,0c0-0.7-0.6-1.3-1.3-1.3h-1.2l0.3-1.3h-2.4l-0.3,1.3h-0.5l0,0h-1.6v-1.3
				h-2.2v1.3h-1.7h-0.1h-0.4l-0.3-1.3h-2.4l0.3,1.3h-0.3h-0.9c-0.7,0-1.3,0.6-1.3,1.3v1.3h1.6h0.6v-1.3h3h0.1h1.7h2.2h1.7l0,0h0.1
				l0,0h2.4l0,0h0.6v1.3H-759.4z"/>
			<path class="st0" d="M-762.7,1278.8v-3.3h-1.9c0.3-1.2,0.3-2.1,0.3-2.1h-2.1v0.2c0,0,0,0,0,0.1v0.1l0,0c0,0.8-0.2,2.5-1.6,3.7
				c-0.9,0.8-2.2,1.2-3.2,1.3h-0.8h-1v1.3c1,0.1,4.5,0.3,6.6-1.5c0.8-0.7,1.3-1.5,1.7-2.3v2.5l0,0c0,0.7,0.6,1.3,1.3,1.3h0.3h0.6
				h5.6v-1.3L-762.7,1278.8L-762.7,1278.8z"/>
		</g>
		<g>
			<rect x="-791.4" y="1272.2" class="st0" width="1.7" height="7.9"/>
			<path class="st0" d="M-787.9,1269.6h-3.5v1.3h2.7v9.1h2.2v-8.7v-0.4l0,0C-786.5,1270.2-787.1,1269.6-787.9,1269.6z"/>
			<path class="st0" d="M-777.7,1278.8v-3.3h2.2v-7.4l0,0l0,0l0,0c0-0.7-0.6-1.3-1.3-1.3h-6.5l0,0h-2.2v8.7h2.2v-7.4h5.7v6h-2
				c0-1.1,0-4.5,0-4.5h-2.1c0,0,0,2.7,0,4c0,0,0,0.7-0.2,1.3s-0.5,1.2-0.6,1.3c-1.3,2.4-3.7,3.8-3.7,3.8h3.1c0,0,2.3-1.6,3.3-5v3.7
				l0,0c0,0.7,0.6,1.3,1.3,1.3h0.9h2.5v-1.3L-777.7,1278.8L-777.7,1278.8z"/>
			<path class="st0" d="M-787.9,1266.7h-3.5v1.7h4.9v-0.4l0,0C-786.5,1267.3-787.1,1266.7-787.9,1266.7z"/>
		</g>
		<g>
			<polygon class="st0" points="-734.6,1276.5 -734.6,1277.8 -725.7,1277.8 -724.4,1277.8 -724.4,1277.8 -724.4,1275.3 
				-725.7,1275.3 -725.7,1276.5 -728.3,1276.5 -728.3,1274 -724.7,1274 -724.7,1272.7 -728.3,1272.7 -728.3,1270.2 -724.7,1270.2 
				-724.7,1268.9 -734.3,1268.9 -734.3,1270.2 -730.6,1270.2 -730.6,1272.7 -734.3,1272.7 -734.3,1274 -730.6,1274 -730.6,1276.5 
							"/>
			<path class="st0" d="M-723.7,1266.7h-11.6h-2.2v1.4v10.7v0.5v0.8h14.7l0,0c0.7,0,1.3-0.6,1.3-1.3v-12.1H-723.7z M-723.7,1278.8
				h-11.6v-10.7h11.6V1278.8z"/>
		</g>
	</g>
	<g>
		<g>
			<polygon class="st1" points="-703.5,1262.6 -695.2,1253.6 -678,1253.6 -678,1270.7 -692,1273.6 -703.5,1273.6 			"/>
			<rect x="-695.2" y="1253.6" class="st2" width="17.2" height="17.2"/>
		</g>
		<g>
			<polygon class="st1" points="-714.2,1262.4 -714.2,1255 -717.5,1243.2 -726.6,1243.2 -726.6,1257 -719.3,1262.4 			"/>
			<rect x="-726.6" y="1243.2" class="st2" width="9.1" height="13.8"/>
		</g>
		<g>
			<polygon class="st1" points="-702.9,1298.2 -704.5,1292.4 -712.7,1292.4 -713.6,1298.2 -713.6,1309 -702.9,1309 			"/>
			<rect x="-713.6" y="1298.2" class="st2" width="10.7" height="10.7"/>
		</g>
		<g>
			<polygon class="st1" points="-723.1,1284.6 -740.6,1289 -740.6,1299.7 -729.8,1299.7 -718.7,1290.9 -718.7,1284.6 			"/>
			<rect x="-740.6" y="1289" class="st2" width="10.7" height="10.7"/>
		</g>
		<g>
			<path class="st1" d="M-700.1,1285.2l9.8,11l6.7-11.9l-14.1-3.1C-700.1,1280.7-701.7,1283.5-700.1,1285.2z"/>
			<circle class="st2" cx="-685.3" cy="1291.3" r="7.1"/>
		</g>
	</g>
</g>
</svg>
